<svg xmlns="http://www.w3.org/2000/svg" width="111.643" height="128.814" viewBox="0 0 111.643 128.814">
  <path id="finger-print-outline" d="M95.27,17.033a2.805,2.805,0,0,1-1.427-.385c-11.908-6.378-22.206-9.08-34.549-9.08a68.919,68.919,0,0,0-34.553,9.08,3.085,3.085,0,0,1-4.221-1.3,3.328,3.328,0,0,1,1.244-4.378,75.628,75.628,0,0,1,37.53-9.847c13.21,0,24.751,3.027,37.408,9.79A3.221,3.221,0,0,1,98,15.232a3.034,3.034,0,0,1-2.729,1.8ZM6.5,50.845a3.149,3.149,0,0,1-1.8-.58,3.29,3.29,0,0,1-.744-4.508A64.859,64.859,0,0,1,27.218,24.7a69.279,69.279,0,0,1,63.957-.065,65.153,65.153,0,0,1,23.263,20.931,3.3,3.3,0,0,1-.744,4.508,3.023,3.023,0,0,1-4.343-.771A58.909,58.909,0,0,0,88.32,30.365a63.206,63.206,0,0,0-58.312.065A59.63,59.63,0,0,0,8.917,49.483,2.683,2.683,0,0,1,6.5,50.845ZM45.271,128.6a2.863,2.863,0,0,1-2.172-.966A65.15,65.15,0,0,1,30.63,110.619c-4.294-7.923-6.511-17.584-6.511-27.954a35.12,35.12,0,0,1,70.235,0,3.1,3.1,0,1,1-6.2,0c0-15.587-12.965-28.274-28.908-28.274S30.321,67.078,30.321,82.665c0,9.275,1.985,17.839,5.767,24.8A61.012,61.012,0,0,0,47.565,123.05a3.4,3.4,0,0,1,0,4.561,3.339,3.339,0,0,1-2.3.989Zm44.48-11.916a32.517,32.517,0,0,1-19.232-5.733A34.644,34.644,0,0,1,55.76,82.673a3.107,3.107,0,1,1,6.206,0A27.984,27.984,0,0,0,74,105.6c4.4,3.092,9.553,4.561,15.759,4.561a39.561,39.561,0,0,0,6.443-.645,3.1,3.1,0,0,1,3.6,2.641,3.2,3.2,0,0,1-2.542,3.737,40.867,40.867,0,0,1-7.5.771ZM77.282,129.939a3.488,3.488,0,0,1-.805-.13c-9.866-2.836-16.316-6.633-23.08-13.526A47.913,47.913,0,0,1,39.936,82.661a19.107,19.107,0,0,1,38.213,0,12.911,12.911,0,0,0,25.809,0c0-24.282-20.164-43.991-44.976-43.991a45.123,45.123,0,0,0-41,25.957,42.832,42.832,0,0,0-3.66,18.034,66.2,66.2,0,0,0,4.153,23.251,3.178,3.178,0,0,1-1.8,4.122,3.042,3.042,0,0,1-3.969-1.878,74.174,74.174,0,0,1-4.53-25.5,49.968,49.968,0,0,1,4.217-20.87A51.3,51.3,0,0,1,58.977,32.163c28.225,0,51.178,22.606,51.178,50.43a19.107,19.107,0,0,1-38.213,0,12.909,12.909,0,0,0-25.8-.011,41.374,41.374,0,0,0,11.6,29.049c5.9,6.053,11.538,9.393,20.286,11.916a3.211,3.211,0,0,1,2.172,3.927,3.057,3.057,0,0,1-2.916,2.458Z" transform="translate(-3.374 -1.125)" fill="#fff"/>
</svg>
