<svg xmlns="http://www.w3.org/2000/svg" width="112.203" height="112.203" viewBox="0 0 112.203 112.203">
  <path id="flow-connection" d="M107.267,68.742H82.333a8.319,8.319,0,0,0-8.311,8.312v8.311H50.808L32.464,67.021V43.807h8.312A8.319,8.319,0,0,0,49.087,35.5V10.561A8.319,8.319,0,0,0,40.775,2.25H15.841a8.319,8.319,0,0,0-8.311,8.311V35.5a8.319,8.319,0,0,0,8.311,8.311h8.311V67.021L4.593,86.58a4.156,4.156,0,0,0,0,5.877l20.779,20.779a4.156,4.156,0,0,0,5.877,0l19.56-19.56H74.021v8.311a8.319,8.319,0,0,0,8.311,8.312h24.934a8.319,8.319,0,0,0,8.312-8.312V77.053a8.319,8.319,0,0,0-8.312-8.312ZM15.841,10.561H40.775V35.5H15.841Zm12.467,93.861-14.9-14.9,14.9-14.9,14.9,14.9Zm54.025-2.434V77.053h24.934v24.934Z" transform="translate(-3.375 -2.25)" fill="#fff"/>
</svg>
