<svg xmlns="http://www.w3.org/2000/svg" width="78.414" height="79.76" viewBox="0 0 78.414 79.76"><g transform="translate(0 0.01)"><path d="M42.222,62.658l3.016,5.7,3.016-5.7-3.016-5.7ZM30.889,64.037V61.279l-.73,1.379.73,1.379Zm8.318,4.318,3.016,5.7,3.016-5.7-3.016-5.7Zm-3.016,5.7,3.016-5.7-3.016-5.7-3.016,5.7Zm3.158,5.428,2.873-5.428-3.016-5.7-3.016,5.7,2.873,5.428h.285Zm5.747,0-2.873-5.428L39.349,79.48H45.1Zm3.158-5.428L45.381,79.48h5.747l-2.873-5.428Zm0,0-3.016-5.7-3.016,5.7,2.873,5.428h.285l2.873-5.428Zm3.016-5.7-3.016-5.7-3.016,5.7,3.016,5.7Zm6.032,0,3.016-5.7-3.016-5.7-3.016,5.7Zm0,0,3.016,5.7,3.016-5.7-3.016-5.7Zm-3.016,5.7,3.016-5.7-3.016-5.7-3.016,5.7Zm0,0,2.873,5.428h.285l2.873-5.428-3.016-5.7-3.016,5.7ZM51.412,79.48l2.873-5.428-3.016-5.7-3.016,5.7,2.873,5.428h.285Zm0,0h5.747l-2.873-5.428L51.413,79.48Zm0,0-.142.269H57.3l-.142-.269Zm-6.032,0-.142.269H51.27l-.142-.269Zm-6.032,0-.142.269h6.032L45.1,79.48Zm-.285,0H33.318l-.142.269h6.032Zm-2.873-5.428L33.318,79.48h5.747l-2.873-5.428Zm-5.3-1.379v2.758l2.144,4.049h.285l2.873-5.428-3.016-5.7-2.286,4.318Zm0,0-.73,1.379.73,1.379V72.674Zm0,0V64.037l-.73-1.379-3.016,5.7,3.016,5.7Zm2.286-4.318-2.286-4.318v8.636Zm3.016-5.7-3.016-5.7-2.286,4.318v2.758l2.286,4.318,3.016-5.7Zm0,0,3.016-5.7-3.016-5.7-3.016,5.7Zm6.032,0-3.016-5.7-3.016,5.7,3.016,5.7Zm0-11.394-3.016,5.7,3.016,5.7,3.016-5.7Zm0,0-3.016-5.7-3.016,5.7,3.016,5.7Zm3.016-5.7-3.016,5.7,3.016,5.7,3.016-5.7Zm0,0-3.016-5.7-3.016,5.7,3.016,5.7Zm0,0,3.016-5.7-3.016-5.7-3.016,5.7,3.016,5.7Zm6.032,0-3.016-5.7-3.016,5.7,3.016,5.7Zm0-11.394-3.016,5.7,3.016,5.7,3.016-5.7Zm0,0-3.016-5.7-3.016,5.7,3.016,5.7Zm0,0,3.016-5.7-3.016-5.7-3.016,5.7Zm6.032,0-3.016-5.7-3.016,5.7,3.016,5.7Zm0-11.394-3.016,5.7,3.016,5.7,3.016-5.7Zm-2.32-4.384h-1.39l-2.32,4.384,3.016,5.7,3.016-5.7-2.32-4.384Zm0,0-.7-1.314-.7,1.314h1.39Zm4.641,0H54.982l2.32,4.384,2.32-4.384Zm0,0,.7-1.314H54.287l.7,1.314Zm1.39,0h-1.39L57.3,22.779l3.016,5.7,3.016-5.7-2.32-4.384Zm0,0-.7-1.314-.7,1.314h1.39Zm4.641,0,.7-1.314H60.318l.7,1.314Zm0,0h1.39l-.7-1.314-.7,1.314Zm-2.32,4.384,2.32-4.384H61.013l2.32,4.384Zm3.016,5.7-3.016-5.7-3.016,5.7,3.016,5.7Zm0,0,3.016-5.7-2.32-4.384h-1.39l-2.32,4.384,3.016,5.7Zm3.016,5.7-3.016-5.7-3.016,5.7,3.016,5.7Zm3.016-5.7-3.016,5.7,3.016,5.7,3.016-5.7Zm-3.016,5.7,3.016-5.7-3.016-5.7-3.016,5.7Zm3.016,5.7-3.016-5.7-3.016,5.7,3.016,5.7Zm4.676-2.56v5.12l1.355-2.56-1.355-2.56ZM75.4,45.567l-3.016-5.7-3.016,5.7,3.016,5.7Zm1.661-3.138V37.31L75.4,34.172l-3.016,5.7,3.016,5.7,1.661-3.138ZM36.193,17.081l-3.016-5.7-3.016,5.7,3.016,5.7ZM47.526,15.7V18.46l.73-1.379Zm-8.318-4.318-3.016-5.7-3.016,5.7,3.016,5.7Zm3.016-5.7-3.016,5.7,3.016,5.7,3.016-5.7ZM39.066.259,36.193,5.687l3.016,5.7,3.016-5.7L39.351.259h-.285Zm-5.747,0,2.873,5.428L39.065.259H33.318ZM30.16,5.687,33.034.259H27.287L30.16,5.687Zm0,0,3.016,5.7,3.016-5.7L33.319.259h-.285L30.161,5.687Zm-3.016,5.7,3.016,5.7,3.016-5.7-3.016-5.7Zm-6.032,0-3.016,5.7,3.016,5.7,3.016-5.7Zm0,0L18.1,5.687l-3.016,5.7,3.016,5.7Zm3.016-5.7-3.016,5.7,3.016,5.7,3.016-5.7-3.016-5.7Zm0,0L21.256.259h-.285L18.1,5.687l3.016,5.7,3.016-5.7ZM27,.259,24.129,5.687l3.016,5.7,3.016-5.7L27.288.259H27Zm0,0H21.255l2.873,5.428L27,.259Zm0,0,.142-.269H21.113l.142.269Zm6.032,0,.142-.269H27.144l.142.269Zm6.032,0,.142-.269H33.176l.142.269Zm.285,0H45.1l.142-.269H39.208Zm2.873,5.428L45.1.259H39.35l2.873,5.428Zm5.3,1.379V4.308L45.381.259H45.1L42.223,5.687l3.016,5.7,2.286-4.318Zm0,0,.73-1.379-.73-1.379Zm0,0V15.7l.73,1.379,3.016-5.7-3.016-5.7-.73,1.379Zm-2.286,4.318L47.525,15.7V7.066Zm-3.016,5.7,3.016,5.7,2.286-4.318V15.7l-2.286-4.318Zm0,0-3.016,5.7,3.016,5.7,3.016-5.7Zm-6.032,0,3.016,5.7,3.016-5.7-3.016-5.7Zm0,11.394,3.016-5.7-3.016-5.7-3.016,5.7Zm0,0,3.016,5.7,3.016-5.7-3.016-5.7Zm-3.016,5.7,3.016-5.7-3.016-5.7-3.016,5.7Zm0,0,3.016,5.7,3.016-5.7-3.016-5.7Zm0,0-3.016,5.7,3.016,5.7,3.016-5.7-3.016-5.7Zm-6.032,0,3.016,5.7,3.016-5.7-3.016-5.7Zm0,11.394,3.016-5.7-3.016-5.7-3.016,5.7Zm0,0,3.016,5.7,3.016-5.7-3.016-5.7Zm0,0-3.016,5.7,3.016,5.7,3.016-5.7Zm-6.032,0,3.016,5.7,3.016-5.7-3.016-5.7-3.016,5.7Zm0,11.394,3.016-5.7-3.016-5.7-3.016,5.7Zm2.32,4.384h1.39l2.32-4.384-3.016-5.7-3.016,5.7,2.32,4.384Zm0,0,.7,1.314.7-1.314Zm-4.641,0h4.641l-2.32-4.384-2.32,4.384Zm0,0-.7,1.314h6.032l-.7-1.314Zm-1.39,0h1.39l2.32-4.384-3.016-5.7-3.016,5.7,2.32,4.384Zm0,0,.7,1.314.7-1.314Zm-4.641,0-.7,1.314H18.1l-.7-1.314Zm0,0h-1.39l.7,1.314Zm2.32-4.384-2.32,4.384H17.4l-2.32-4.384Zm-3.016-5.7,3.016,5.7,3.016-5.7-3.016-5.7Zm0,0-3.016,5.7,2.32,4.384h1.39l2.32-4.384-3.016-5.7Zm-3.016-5.7,3.016,5.7,3.016-5.7-3.016-5.7Zm-3.016,5.7,3.016-5.7-3.016-5.7-3.016,5.7Zm3.016-5.7-3.016,5.7,3.016,5.7,3.016-5.7Zm-3.016-5.7,3.016,5.7,3.016-5.7-3.016-5.7Zm-4.676,2.56V37.31L0,39.869l1.355,2.56Zm1.661-8.257,3.016,5.7,3.016-5.7-3.016-5.7-3.016,5.7ZM1.355,37.31v5.12l1.661,3.138,3.016-5.7-3.016-5.7L1.355,37.31Z" transform="translate(0 0)" fill="#fff" fill-rule="evenodd"/></g></svg>