<svg id="megaphone" xmlns="http://www.w3.org/2000/svg" width="98.426" height="95.249" viewBox="0 0 98.426 95.249">
  <path id="Trazado_11" data-name="Trazado 11" d="M24.008,10.263a19.549,19.549,0,0,0,0,39.1,3.547,3.547,0,0,0,3.5-3.006h.055V13.821A3.558,3.558,0,0,0,24,10.263Z" transform="translate(-4.459 9.249)" fill="#fff"/>
  <path id="Trazado_12" data-name="Trazado 12" d="M81.4,8.452a3.558,3.558,0,0,0-3.558-3.558,3.517,3.517,0,0,0-2.155.745L44.39,23.712H16.17a3.558,3.558,0,0,0-3.558,3.558V61.036h.044a3.547,3.547,0,0,0,3.514,3.118H41.21L75.437,83.913a3.548,3.548,0,0,0,5.971-2.6,3.5,3.5,0,0,0-.04-.392h.04V8.659h-.022c0-.069.022-.134.022-.207Z" transform="translate(17.018 -4.894)" fill="#fff"/>
  <path id="Trazado_13" data-name="Trazado 13" d="M39.228,43.532l-.051-.087c-.018-.033-.025-.065-.044-.094s-.044-.055-.062-.084L28.208,24.449l-.04.022a3.533,3.533,0,0,0-2.431-1.436v-.04H16.292v.022A3.546,3.546,0,0,0,13.5,28.33a3.148,3.148,0,0,0,.287.4l-.044.025L26.41,50.684l0,.007,0,0,.127.218.022-.015a3.547,3.547,0,0,0,4.706,1.09,3.894,3.894,0,0,0,.523-.374l.033.055,6.52-3.761-.029-.051a3.543,3.543,0,0,0,.9-4.325l.011,0Z" transform="translate(18.11 42.789)" fill="#fff"/>
</svg>
