<svg xmlns="http://www.w3.org/2000/svg" width="95.204" height="95.249" viewBox="0 0 95.204 95.249">
  <path id="paper-plane-o" d="M93.716,1.251a3.323,3.323,0,0,1,1.435,3.4l-13.6,81.6a3.352,3.352,0,0,1-1.7,2.39,3.256,3.256,0,0,1-1.647.425,3.573,3.573,0,0,1-1.276-.266L48.932,77.375,33.1,94.746a3.133,3.133,0,0,1-2.5,1.114,3.028,3.028,0,0,1-1.222-.213A3.185,3.185,0,0,1,27.787,94.4a3.423,3.423,0,0,1-.584-1.938V68.45L2.131,58.2A3.118,3.118,0,0,1,.008,55.275a3.1,3.1,0,0,1,1.7-3.133l88.395-51a3.087,3.087,0,0,1,3.612.1ZM75.548,80.882,87.288,10.6,11.11,54.532l17.85,7.278L74.805,27.865,49.413,70.2Z" transform="translate(0.005 -0.611)" fill="#fff"/>
</svg>
