<svg xmlns="http://www.w3.org/2000/svg" width="79.332" height="73.54" viewBox="0 0 79.332 73.54"><path d="M21.226,35.142c-.417,2.7.28,3.747.261,4.707.268.29.884,2.021,1.4,2.785,4.329,6.481,12.3,5.837,17.164.31.508.244,6.866,4.481,6.973,4.637a31.172,31.172,0,0,1,3.52,2.321,8.821,8.821,0,0,1-1.651,1.109c-.182.316-7.157,4.949-8.685,5.99a6.727,6.727,0,0,1-.572-.735,10.532,10.532,0,0,0-13-2.5,10.143,10.143,0,0,0-3.487,3.012c-2.259,2.723-2.7,7.634-.892,11.068a10.479,10.479,0,0,0,3.368,3.825A11,11,0,0,0,32.21,73.53c.923-.353,3.212-.05,6.062-2.405a8.706,8.706,0,0,0,3.6-6.463,15.385,15.385,0,0,0,.117-2.814l3.284-2.212c1.119-.743,2.2-1.483,3.288-2.223,2.128-1.443,4.4-3.145,6.591-4.452C57.768,53.76,70.656,63,70.684,63c.932.1,2.182.023,3.145.025,1.619,0,3.9.032,5.513-.008-11.321-7.8-23.373-15.444-34.675-23.265L42,37.946a13.566,13.566,0,0,0-.379-4.2,10.468,10.468,0,0,0-20.385,1.4Zm9.653,22.666a5.269,5.269,0,1,0,5.926,4.449,5.268,5.268,0,0,0-5.926-4.449ZM30.7,31.573a5.267,5.267,0,1,0,6.089,4.3,5.267,5.267,0,0,0-6.089-4.3ZM2.359,2.314A7.891,7.891,0,0,0,.932,4.281,8.324,8.324,0,0,0,.124,6.926C-.1,8.76.078,11.773.075,13.75q0,8.414,0,16.826c0,2.459.266,13.247.116,17.926-.119,3.68.234,4.7,1.641,6.442.152.019.877.914,1.637,1.439l.6.412c.578.19.8.4,1.692.655l.506.185a.658.658,0,0,1,.069.04c.325-.054,2.422.1,3.055.1,1.059,0,2.116,0,3.175,0,.181-.044.586-1.411,1.226-2.513a33.623,33.623,0,0,1,1.979-2.743c-2.307-.03-4.631,0-6.94,0-2.629,0-3.494-.85-3.5-3.456-.015-5.3-.08-41.378.092-41.586A2.491,2.491,0,0,1,7.444,5.292a35.04,35.04,0,0,1,4.173-.054h3.735q22.412,0,44.824,0h3.735c1.212,0,2.488-.168,3.371.5a3.024,3.024,0,0,1,1.077,2.7V23.754c0,2.422-.15,5.4.019,7.751l5.252-.034c-.17-7.7-.021-15.578-.019-23.3L73.452,6.2C71.609,1.724,70.4,0,64.3-.01h-55C5.911,0,4.191.5,2.357,2.313ZM15.876,36.786l-.05-5.271-5.273-.052.025,5.295,5.3.029ZM10.546,15.781l5.281-.043.026-5.244H10.582Zm52.595,0L63.1,10.5l-5.255-.011.018,5.249,5.281.044ZM13.509,26.252l2.292.041.028-5.28-5.285-.033.039,5.273h2.925Zm44.379.029,2.284-.029h2.9l.066-5.271-5.285.033.03,5.267ZM10.619,47.322l1-.059,4.191-.007.022-5.227-5.251-.015.039,5.309ZM57.906,36.789c.89-.134,2.5.2,3.175-.19a16.972,16.972,0,0,0,2.014-1.356l.043-3.728-5.28,0,.048,5.273Z" transform="translate(-0.009 0.01)" fill="#fff" fill-rule="evenodd"/></svg>