<svg xmlns="http://www.w3.org/2000/svg" width="108.539" height="61.616" viewBox="0 0 108.539 61.616"><path d="M20.341,27.257c0,4.942.353,19.47-.766,23.4-.816,2.87-3.5,4.105-4.959,6.277l60.628,4.677c.118-1.424,1.76-3.948,2.059-6.434.22-1.831.061-22.881.061-25.8,0-4.906-.465-12.7.455-16.716.907-3.96,2.755-3.895-.657-3.854C59.4,8.241,43.329,7.712,26.489,7.751c-2.268.006-3.295-.052-3.941.457-3,2.362-2.208,15.48-2.208,19.047ZM-.009,11.782c0,2.036.8,2.332,3.392,2.332v.848H16.738V46.972c0,.68-2.6,2.5-3.18,2.968-1.653,1.322-2.544,1.154-2.544,3.816,3.42,0,2.168,1.54,4.878-.631,1.687-1.352,2.809-1.172,2.774-4.014l-.021-33.939c-.025-4.886.649-3.2,1.486-5.51H6.139L8.747,4.822,86.481,6.553l-2.157,5.213-4.2-.1c-1.984,3.5-1.617,3.607-1.03,7.748l11.209.629V46.76c0,.489-.148.636-.636.636H78.638c0,2.3-.324,3.392.636,3.392H90.3V52.06c0,.9-3.816,4.984-3.816,6.36v1.908h3.392c.611,0,7.844-9.729,7.844-10.811V46.76h-3.6v-26.5c8.707,0,14.416,3.437,14.416-6.572V5.634c0-3.249-2.905-3.8-6.269-3.845C71.264,1.383,45.246.44,10.423,0c-3.968-.05-4.869,0-6.879,2.918C1.833,5.4-.01,9.427-.01,11.782Z" transform="translate(0.01 0.005)" fill="#fff" fill-rule="evenodd"/></svg>