<svg xmlns="http://www.w3.org/2000/svg" width="74.941" height="73.54" viewBox="0 0 74.941 73.54"><g transform="translate(0 0)"><path d="M3.5,41.341c8.195,0,5.447.291,12.065,5.095,1.065.773,1.943,1.294,1.943,2.96V64.1H3.5V41.341ZM21.011,50.1c-.756-3.16.354-3.023,7.358-6.649l8.4-4.557c.409,1.755,1.237,3.292,1.4,5.253L21.01,50.1Zm-2.451-6.3c-2.671,0-6.311-5.6-9.455-5.6H0V70.408H5.953V73.56h7.7V70.408H61.634V73.56h7.7V70.408h5.6V64.1H20.662c0-9.358-1.23-7.946,5.558-10.2,13.2-4.382,27.36-9.862,40.448-14.181,1.924-.635,5.468-2.116,6.872-2.233-.133-1.591-1.036-3.685-1.4-5.253L50.3,39.81c-1.377.455-2.387.751-3.67,1.232a29.511,29.511,0,0,1-3.9,1.35c-.138-1.66-1.4-3.88-1.4-4.9,0-1.083,1.933-2.98,2.569-4.085l6.77-13.541c3.049-6.1,5.754-12.2,8.871-18.093-1.3-.69-2.527-1.115-3.852-1.751-.368,1.58-2.368,5.086-3.152,6.654L42.49,27.1c-4.214,8.427-.988,3.931-10.555,9.756L18.561,43.794Z" transform="translate(0 -0.02)" fill="#fff" fill-rule="evenodd"/><path d="M662.38,611.742c0,2.008,1.826,2.4,2.8,3.852-.371,1.39-1.295,1.6-2.1,2.8.665,1.256.552,1.3,1.751,2.1.336-1.259.809-1.287,1.671-2.181,3.634-3.766-.368-5.15-1.321-6.574.55-2.36,1.08-1.407,2.1-2.8a8.8,8.8,0,0,1-1.051-2.1,4.082,4.082,0,0,0-2.311,1.891c-.747.96-1.541,1.622-1.541,3.011Z" transform="translate(-608.101 -557.114)" fill="#fff" fill-rule="evenodd"/><path d="M478.63,611.032c0,4.366,5.444,4.308.35,7,.492.929.909,1.523,1.4,2.451,7.222-4.836,1.2-8.358.7-9.1a25.723,25.723,0,0,0,2.1-2.451,8.8,8.8,0,0,0-1.051-2.1c-.829.556-3.5,3.051-3.5,4.2Z" transform="translate(-439.408 -557.105)" fill="#fff" fill-rule="evenodd"/><path d="M572.631,614.612c0,3.825,2.451,3.066,2.451,4.9,0,.908-1.508,1.916-2.1,2.8.474.707.927,1.394,1.4,2.1a7.529,7.529,0,0,0,2.059-2.143c3.229-3.985.7-3.889-1.359-6.961l2.172-2.383c-.484-.85-.655-1.123-1.122-1.82-1.742.465-3.5,2.485-3.5,3.5Z" transform="translate(-525.706 -561.034)" fill="#fff" fill-rule="evenodd"/></g></svg>