<svg xmlns="http://www.w3.org/2000/svg" width="83.347" height="64.896" viewBox="0 0 83.347 64.896"><path d="M6.45,1.5H79.9a4.964,4.964,0,0,1,4.95,4.95v55A4.964,4.964,0,0,1,79.9,66.4H6.45a4.964,4.964,0,0,1-4.95-4.95v-55A4.964,4.964,0,0,1,6.45,1.5Zm48.5,4.128A2.779,2.779,0,1,1,52.17,8.407,2.779,2.779,0,0,1,54.949,5.628Zm9.5,0a2.779,2.779,0,1,1-2.779,2.779A2.779,2.779,0,0,1,64.452,5.628Zm9.5,0a2.779,2.779,0,1,1-2.779,2.779A2.779,2.779,0,0,1,73.955,5.628ZM4.665,15.317H81.682V62.952H4.665V15.317ZM46.866,53.9H73.537A2.371,2.371,0,0,1,75.9,56.267h0a2.371,2.371,0,0,1-2.364,2.364H46.866A2.371,2.371,0,0,1,44.5,56.267h0A2.371,2.371,0,0,1,46.866,53.9Zm-35.382,0H38.155a2.371,2.371,0,0,1,2.364,2.364h0a2.371,2.371,0,0,1-2.364,2.364H11.484A2.371,2.371,0,0,1,9.12,56.267h0A2.371,2.371,0,0,1,11.484,53.9ZM9.309,19.781H75.9V47.774H9.309V19.781Zm8.3,6.783v8.369a2.693,2.693,0,0,0,.542,1.8,2.048,2.048,0,0,0,1.647.635,2.1,2.1,0,0,0,1.668-.644,2.633,2.633,0,0,0,.563-1.79V26.565h4.011v8.369a6.479,6.479,0,0,1-.839,3.387,5.357,5.357,0,0,1-2.282,2.108,6.8,6.8,0,0,1-1.682.563h-3.03a6.256,6.256,0,0,1-1.632-.563,5.144,5.144,0,0,1-2.169-2.1,6.8,6.8,0,0,1-.788-3.4V26.565h3.99Zm19.816,0h3.868L37.929,40.99H34.062l3.364-14.426Zm13.4,14.426H47.8a6.256,6.256,0,0,1-1.632-.563A5.144,5.144,0,0,1,44,38.329a6.8,6.8,0,0,1-.788-3.4V26.564H47.2v8.369a2.693,2.693,0,0,0,.542,1.8,2.048,2.048,0,0,0,1.647.635,2.1,2.1,0,0,0,1.668-.644,2.633,2.633,0,0,0,.563-1.79V26.564H55.63v8.369a6.479,6.479,0,0,1-.839,3.387,5.357,5.357,0,0,1-2.282,2.108,6.8,6.8,0,0,1-1.682.563ZM32.261,26.564V40.99H28.251V26.564Zm34.6,14.426-2.8-4.072L61.665,40.99H57.1L61.788,33.6l-4.849-7.039h4.727l2.722,3.97,2.333-3.97h4.563l-4.625,7.264L71.59,40.99Z" transform="translate(-1.5 -1.5)" fill="#fff" fill-rule="evenodd"/></svg>