<svg xmlns="http://www.w3.org/2000/svg" width="42.877" height="28.338" viewBox="0 0 42.877 28.338"><path d="M17.344,12.96A4.094,4.094,0,0,1,20.366,14a5.717,5.717,0,0,1,1.458,2.4,9.688,9.688,0,0,1,.468,3.438,9.683,9.683,0,0,1-.365,2.812,7.373,7.373,0,0,1-.938,2.032,6.706,6.706,0,0,1-1.355,1.458,7.916,7.916,0,0,1-1.562.99,10.318,10.318,0,0,1-4.219.938H0V.3H13.854a10.4,10.4,0,0,1,2.969.417,5.561,5.561,0,0,1,2.4,1.406,7.457,7.457,0,0,1,1.562,2.291A8.177,8.177,0,0,1,21.354,7.7a5.355,5.355,0,0,1-.624,2.917,6.832,6.832,0,0,1-1.406,1.562,5.5,5.5,0,0,1-1.979.782ZM6.093,11.4h7.292a2.624,2.624,0,0,0,1.667-.573q.729-.573.677-2.708a4.412,4.412,0,0,0-.261-1.667,1.822,1.822,0,0,0-.677-.885,2.162,2.162,0,0,0-.938-.312H6.094V11.4Zm7.345,11.719a3.849,3.849,0,0,0,.99-.156,3.541,3.541,0,0,0,1.041-.468,2.953,2.953,0,0,0,.885-1.094,3.255,3.255,0,0,0,.312-1.875,4.853,4.853,0,0,0-.417-2.24,2.563,2.563,0,0,0-.99-1.094,2.822,2.822,0,0,0-1.406-.468H6.094v7.4h7.345ZM33.6,7.335a10.4,10.4,0,0,1,3.49.521,8.6,8.6,0,0,1,2.5,1.355,6.732,6.732,0,0,1,1.667,1.927,11.643,11.643,0,0,1,.99,2.24,16.007,16.007,0,0,1,.573,6.042H29.064a4.744,4.744,0,0,0,.729,2.917,5.061,5.061,0,0,0,1.615,1.406,4.571,4.571,0,0,0,2.344.468,5.574,5.574,0,0,0,2.552-.468,3.489,3.489,0,0,0,1.25-.99,2.446,2.446,0,0,0,.468-1.511H42.71a8.262,8.262,0,0,1-.365,2.6A5.47,5.47,0,0,1,41.3,25.722a7.962,7.962,0,0,1-1.511,1.355,6.22,6.22,0,0,1-1.667.833,11.821,11.821,0,0,1-4.531.729,11.994,11.994,0,0,1-3.541-.468,10.983,10.983,0,0,1-2.656-1.2,6.2,6.2,0,0,1-1.823-1.718q-.676-.988-1.2-1.927a12.959,12.959,0,0,1-1.041-5.313,13.6,13.6,0,0,1,1.3-5.313,10.359,10.359,0,0,1,1.25-1.979A8.584,8.584,0,0,1,27.71,9a9.3,9.3,0,0,1,2.5-1.2A11.041,11.041,0,0,1,33.6,7.336Zm4.167,8.386a4.711,4.711,0,0,0-.468-2.135,4.618,4.618,0,0,0-1.25-1.511,3.668,3.668,0,0,0-2.369-.677,3.9,3.9,0,0,0-2.422.677,6.186,6.186,0,0,0-1.458,1.562,5.569,5.569,0,0,0-.782,2.084h8.751ZM38.857,5.356H27.866V1.918h10.99V5.356Z" transform="translate(0 -0.304)" fill="#fff"/></svg>