<svg xmlns="http://www.w3.org/2000/svg" width="42.632" height="42.632" viewBox="0 0 42.632 42.632"><path d="M28.421,21.316a7.108,7.108,0,0,0-7.105-7.105,7.108,7.108,0,0,0-7.105,7.105,7.108,7.108,0,0,0,7.105,7.105,7.108,7.108,0,0,0,7.105-7.105Zm3.83,0A10.9,10.9,0,0,1,21.316,32.251,10.9,10.9,0,0,1,10.381,21.316,10.9,10.9,0,0,1,21.316,10.381,10.9,10.9,0,0,1,32.251,21.316Zm3-11.379a2.553,2.553,0,1,1-4.357-1.8,2.553,2.553,0,0,1,4.357,1.8ZM21.316,3.83l-2.123-.014q-1.929-.014-2.929,0T13.585,3.9a21.888,21.888,0,0,0-2.859.277,11.03,11.03,0,0,0-1.984.515A7.259,7.259,0,0,0,4.691,8.743a11.138,11.138,0,0,0-.514,1.985A21.888,21.888,0,0,0,3.9,13.587q-.069,1.679-.083,2.679t0,2.929q.014,1.929.014,2.123t-.014,2.123q-.014,1.929,0,2.929T3.9,29.048a21.888,21.888,0,0,0,.277,2.859,11.072,11.072,0,0,0,.514,1.982,7.259,7.259,0,0,0,4.052,4.052,11.138,11.138,0,0,0,1.985.514,21.889,21.889,0,0,0,2.859.277q1.679.069,2.679.083t2.929,0l2.123-.014,2.123.014q1.929.014,2.929,0t2.679-.083a21.886,21.886,0,0,0,2.859-.277,11.139,11.139,0,0,0,1.985-.514,7.259,7.259,0,0,0,4.052-4.052,11.138,11.138,0,0,0,.514-1.985,21.888,21.888,0,0,0,.277-2.859q.069-1.679.083-2.679t0-2.929q-.014-1.929-.014-2.123t.014-2.123q.014-1.929,0-2.929t-.083-2.679a21.886,21.886,0,0,0-.277-2.859,10.925,10.925,0,0,0-.516-1.982,7.259,7.259,0,0,0-4.052-4.052A11.138,11.138,0,0,0,31.9,4.177,21.888,21.888,0,0,0,29.046,3.9q-1.679-.069-2.679-.083t-2.929,0l-2.123.014ZM42.632,21.316q0,6.356-.139,8.8-.277,5.773-3.441,8.937t-8.937,3.441q-2.443.139-8.8.139t-8.8-.139q-5.773-.277-8.937-3.441T.139,30.115Q0,27.672,0,21.316t.139-8.8Q.416,6.744,3.58,3.58T12.517.139Q14.96,0,21.316,0t8.8.139q5.773.277,8.937,3.441t3.441,8.937Q42.632,14.96,42.632,21.316Z" fill="#fff"/></svg>